<?xml version="1.0" encoding="UTF-8" standalone="no"?>
<svg width="663px" height="446px" viewBox="0 0 663 446" version="1.1" xmlns="http://www.w3.org/2000/svg" xmlns:xlink="http://www.w3.org/1999/xlink">
    <!-- Generator: Sketch 3.8.2 (29753) - http://www.bohemiancoding.com/sketch -->
    <title>star</title>
    <desc>Created with Sketch.</desc>
    <defs></defs>
    <g id="Page-1" stroke="none" stroke-width="1" fill="none" fill-rule="evenodd">
        <g id="star">
            <path d="M320,278 C320,278 315.247287,312.229567 312.135171,327 C310.49974,334.761934 305.731035,342.477758 303.135171,353 C299.030844,369.636746 300.135171,388 300.135171,388 C300.135171,388 371.13517,395 379.13517,394 C383.457608,393.459695 381.995508,383.630761 377.13517,376 C372.99996,369.507694 365.679243,365.108791 365.135171,364 C362.202314,358.022982 363.481135,350.314282 364.135171,348 C366.442991,339.833868 379.135171,320 379.135171,320 C379.135171,320 373.175339,303.406977 369.13517,296 C365.175339,288.74031 355,271 355,271" id="Path-2" fill="#D0EDF5"></path>
            <path d="M192,287 C192,284.724406 192.263375,334.881339 198,343.275594 C200.110016,346.363126 210.41388,349.257407 215,356.275594 C219.886125,363.752882 219,375.275594 219,375.275594 L154,375.275594 C154,375.275594 132.491636,347.98918 129,342.275594 C125.158303,335.98918 120,322.275594 120,322.275594 C120,322.275594 133.881553,284.819244 141,279.275594 C145.832943,275.511832 162,276 162,276" id="Path-3" fill="#D0EDF5"></path>
            <path d="M131.065646,1.55784392 C173.996375,-3.81879263 216.51953,6.26443728 228.065646,8.55784393 C241.525173,11.2313115 371.282715,42.817154 425,58 C448.519955,64.6477644 483.811017,76.3302168 513,90.5578461 C543.936035,105.637044 568.435456,123.345529 580.065631,132.557844 C595.126757,144.48783 611.394404,163.572634 625.065631,177.557846 C629.500387,182.094455 639.878796,186.139575 647.065631,198.557846 C655.108175,212.454712 659.774025,234.814663 660.065631,239.557844 C661.084778,256.134961 654.065649,272.557844 654.065649,272.557844 C654.065649,272.557844 662.383598,304.29915 660.065631,315.557844 C658.985775,320.802859 653.066584,331.15112 645.065631,335.557844 C641.001808,337.796096 628.547949,344.511535 614.065631,335.557844 C607.460429,331.474179 601.9551,322.303401 595.065631,315.557844 C582.115527,302.878249 568.151764,291.288174 560.065631,285.557844 C539.552294,271.020834 495.065662,249.557844 495.065662,249.557844 C495.065662,249.557844 485.065662,296.557844 489.065662,330.557844 C491.649888,352.523764 488.394571,380.107947 500.065643,402.557831 C502.748479,407.718399 514.722699,408.545137 523.065613,416.557831 C534.606427,427.64185 541.058514,445.557831 523.065613,445.557831 C492.065552,445.557831 433.065643,433.557831 433.065643,433.557831 C433.065643,433.557831 408.671594,378.118603 395.065643,350.557831 C382.671596,325.45194 355.065649,275.557844 355.065649,275.557844 C355.065649,275.557844 282.849626,293.557844 255.065646,293.557844 C178.065646,293.557844 158.065649,280.557844 158.065649,280.557844 C158.065649,280.557844 134.535081,298.61424 127.065646,309.557831 C125.258857,312.204987 113.874908,328.975275 120.065651,342.557831 C123.689959,350.509602 138.065643,350.557831 145.065643,357.557831 C151.934675,364.426863 152.065646,376.557831 152.065646,376.557831 L37.0656491,374.557844 C37.0656491,374.557844 31.96143,363.659372 31.0656484,346.557844 C30.3594993,333.076625 34.5355054,304.525825 31.0656484,280.557844 C29.2919884,268.306316 18.2026022,234.645105 12.0656493,206.557846 C7.31708295,184.824876 0.869024118,157.930211 0.065649102,134.557846 C-0.543308834,116.841603 3.18510459,101.337135 7.0656491,90.5578439 C16.0656482,65.5578439 28.0656491,50.5578439 28.0656491,50.5578439 C42.7337283,28.3028272 87.1279687,7.06059067 131.065646,1.55784392 Z" id="Path-1" fill="#F1F9FB"></path>
            <path d="M630,182.049705 C630,182.049705 635.333144,180.752018 641,179.049705 C644.449797,178.013392 647.567711,176.427668 651,176.049705 C653.472909,175.777389 658.693996,176.557679 661,180.049705 C663.35525,183.616304 662.761692,189.931104 662,193.049704 C659.756684,202.234525 651,210.049706 651,210.049706" id="Path-4" fill="#F1F9FB"></path>
            <path d="M554.371188,229.812399 C554.371188,229.812399 547.494938,221.448822 545.371188,211.8124 L545.371188,211.8124 C544.266119,206.798193 545.541651,196.346939 550.371189,191.812399 C554.80274,187.651536 562.647497,189.153385 565.371189,189.812399 C572.660225,191.576025 580.371188,195.812399 580.371188,195.812399" id="Path-5" stroke="#2A98AB"></path>
            <path d="M559.08,203.472222 C563.08,201.472222 568.08,206.472222 568.08,206.472222 L558.08,217.472222 C558.08,217.472222 555.08,205.472222 559.08,203.472222 Z" id="Path-6" fill="#2A98AB"></path>
            <path d="M642.920566,185.093442 C646.920566,183.093442 651.920566,188.093442 651.920566,188.093442 L641.920566,199.093442 C641.920566,199.093442 638.920566,187.093442 642.920566,185.093442 Z" id="Path-6-Copy" fill="#2A98AB" transform="translate(646.380566, 191.857330) scale(-1, 1) rotate(-7.000000) translate(-646.380566, -191.857330) "></path>
            <circle id="Oval-1" fill="#2A98AB" cx="609.5" cy="257.5" r="4.5"></circle>
            <circle id="Oval-1-Copy" fill="#2A98AB" cx="647.5" cy="257.5" r="4.5"></circle>
            <path d="M636.854917,332.965611 C647.072185,332.965611 655.354917,328.488459 655.354917,322.965611 C655.354917,317.442764 647.072185,312.965611 636.854917,312.965611 C626.63765,312.965611 618.354917,317.442764 618.354917,322.965611 C618.354917,328.488459 626.63765,332.965611 636.854917,332.965611 Z" id="Oval-3" fill="#2A98AB" transform="translate(636.854917, 322.965611) rotate(-21.000000) translate(-636.854917, -322.965611) "></path>
            <polygon id="Star-1" fill="#FD504A" points="271 193.5 236.32067 211.732003 242.943833 173.116001 214.887666 145.767997 253.660335 140.133999 271 105 288.339665 140.133999 327.112334 145.767997 299.056167 173.116001 305.67933 211.732003"></polygon>
        </g>
    </g>
</svg>